# xmcd
#
# Track frame offsets: 
#        150
#        16702
#        38506
#        55185
#        75491
#        99059
#        111534
#        137686
#        158783
#        177451
#        200245
#
# Disc length: 2896 seconds
#
# Revision: 0
# Processed by: cddbd v1.5.2PL0 Copyright (c) Steve Scherf et al.
# Submitted via: ExactAudioCopy v1.0b1
#
DISCID=850b4e0b
DTITLE=Various Artist - The Woodstock Experience CD 4
DYEAR=1900
DGENRE=
TTITLE0=Slash and Roger Daltrey - No More Mr. Nice Guy
TTITLE1=Ted Nugent - Rag Doll
TTITLE2=Robby Krieger - Brain Damage
TTITLE3=Albert Lee - Back In The Saddle
TTITLE4=Paul Gilbert - Childern Of The Grave
TTITLE5=Jimmy Page - 'Cause I Love You
TTITLE6=Jimmy Page - Burn Up
TTITLE7=Melanie - Ruby Tuesday
TTITLE8=Mick Taylor - Jailbreak
TTITLE9=Flamin' Groovies - Slow Death
TTITLE10=Flamin' Groovies - I Can't Hide
EXTD=
EXTT0=
EXTT1=
EXTT2=
EXTT3=
EXTT4=
EXTT5=
EXTT6=
EXTT7=
EXTT8=
EXTT9=
EXTT10=
PLAYORDER=
